<svg width="640" height="220" viewBox="0 0 640 220" fill="none" xmlns="http://www.w3.org/2000/svg" role="img" aria-labelledby="title desc">
  <title id="title">DietPixels logo</title>
  <desc id="desc">A pixel block slimming into smaller colored pixels beside the DietPixels wordmark.</desc>
  <rect width="640" height="220" rx="36" fill="#0f172a"/>
  <rect x="28" y="28" width="164" height="164" rx="28" fill="#111827" stroke="#334155" stroke-width="4"/>
  <rect x="58" y="58" width="42" height="42" rx="8" fill="#22c55e"/>
  <rect x="106" y="58" width="32" height="32" rx="7" fill="#38bdf8"/>
  <rect x="144" y="58" width="18" height="18" rx="5" fill="#facc15"/>
  <rect x="58" y="108" width="34" height="34" rx="8" fill="#a78bfa"/>
  <rect x="100" y="104" width="26" height="26" rx="7" fill="#22c55e"/>
  <rect x="132" y="98" width="20" height="20" rx="5" fill="#38bdf8"/>
  <rect x="158" y="92" width="12" height="12" rx="4" fill="#f97316"/>
  <rect x="58" y="150" width="26" height="26" rx="7" fill="#facc15"/>
  <rect x="92" y="144" width="18" height="18" rx="5" fill="#a78bfa"/>
  <rect x="118" y="136" width="12" height="12" rx="4" fill="#22c55e"/>
  <rect x="138" y="126" width="8" height="8" rx="3" fill="#38bdf8"/>
  <path d="M212 110H252" stroke="#475569" stroke-width="6" stroke-linecap="round"/>
  <path d="M238 88L260 110L238 132" stroke="#475569" stroke-width="6" stroke-linecap="round" stroke-linejoin="round"/>
  <text x="286" y="102" fill="#f8fafc" font-family="Inter, ui-sans-serif, system-ui, -apple-system, BlinkMacSystemFont, 'Segoe UI', sans-serif" font-size="48" font-weight="800" letter-spacing="0">DietPixels</text>
  <text x="290" y="143" fill="#94a3b8" font-family="Inter, ui-sans-serif, system-ui, -apple-system, BlinkMacSystemFont, 'Segoe UI', sans-serif" font-size="18" font-weight="500" letter-spacing="0">image compression, trimmed down</text>
  <circle cx="577" cy="52" r="10" fill="#22c55e"/>
  <circle cx="602" cy="76" r="6" fill="#38bdf8"/>
  <circle cx="565" cy="171" r="7" fill="#facc15"/>
</svg>
